<svg height="512pt" viewBox="0 0 512 512" width="512pt" xmlns="http://www.w3.org/2000/svg"><path d="m416 512h-320c-53.023438 0-96-42.976562-96-96v-320c0-53.023438 42.976562-96 96-96h320c53.023438 0 96 42.976562 96 96v320c0 53.023438-42.976562 96-96 96zm0 0" fill="#e3f8fa"/><g fill="#26c6da"><path d="m136 136v69.328125h69.328125zm0 0"/><path d="m205.328125 213.328125h-69.328125c-4.414062 0-8-3.585937-8-8v-69.328125c0-3.230469 1.953125-6.160156 4.945312-7.390625 2.976563-1.21875 6.414063-.5625 8.703126 1.742187l69.328124 69.328126c2.289063 2.289062 2.976563 5.726562 1.742188 8.71875-1.230469 2.992187-4.144531 4.929687-7.390625 4.929687zm-61.328125-16h42.015625l-42.015625-42.015625zm0 0"/><path d="m256 384c-34.160156 0-66.304688-13.328125-90.496094-37.503906-4.160156-4.160156-4.160156-10.910156 0-15.089844 4.160156-4.175781 10.910156-4.160156 15.089844 0 20.160156 20.160156 46.941406 31.265625 75.40625 31.265625 58.816406 0 106.671875-47.855469 106.671875-106.671875s-47.855469-106.671875-106.671875-106.671875c-36.753906 0-72.222656 18.59375-92.574219 48.527344-3.328125 4.863281-9.953125 6.160156-14.816406 2.816406-4.882813-3.328125-6.128906-9.953125-2.816406-14.816406 24.253906-35.695313 66.496093-57.855469 110.207031-57.855469 70.574219 0 128 57.425781 128 128s-57.425781 128-128 128zm0 0"/></g></svg>